<mxfile host="app.diagrams.net" modified="2022-05-01T13:01:54.666Z" agent="5.0 (Windows NT 10.0; Win64; x64) AppleWebKit/537.36 (KHTML, like Gecko) Chrome/101.0.4951.41 Safari/537.36 Edg/101.0.1210.32" etag="YN0eu4GmRJQlTYwdWhG5" version="17.5.0" type="github">
  <diagram name="Page-1" id="13e1069c-82ec-6db2-03f1-153e76fe0fe0">
    <mxGraphModel dx="1550" dy="867" grid="1" gridSize="10" guides="1" tooltips="1" connect="1" arrows="1" fold="1" page="1" pageScale="1" pageWidth="1100" pageHeight="850" background="none" math="0" shadow="0">
      <root>
        <mxCell id="0" />
        <mxCell id="1" parent="0" />
        <mxCell id="D334Im0Mvhj-NMKWilyu-4" value="用户" style="shape=umlLifeline;participant=umlActor;perimeter=lifelinePerimeter;whiteSpace=wrap;html=1;container=1;collapsible=0;recursiveResize=0;verticalAlign=top;spacingTop=55;outlineConnect=0;size=70;fontSize=14;" parent="1" vertex="1">
          <mxGeometry x="190" y="100" width="50" height="650" as="geometry" />
        </mxCell>
        <mxCell id="D334Im0Mvhj-NMKWilyu-7" value="" style="html=1;points=[];perimeter=orthogonalPerimeter;strokeWidth=1;" parent="D334Im0Mvhj-NMKWilyu-4" vertex="1">
          <mxGeometry x="20" y="143" width="10" height="87" as="geometry" />
        </mxCell>
        <mxCell id="D334Im0Mvhj-NMKWilyu-5" value=":账户" style="shape=umlLifeline;perimeter=lifelinePerimeter;whiteSpace=wrap;html=1;container=1;collapsible=0;recursiveResize=0;outlineConnect=0;fontSize=16;" parent="1" vertex="1">
          <mxGeometry x="367" y="125" width="140" height="605" as="geometry" />
        </mxCell>
        <mxCell id="D334Im0Mvhj-NMKWilyu-12" value="" style="html=1;points=[];perimeter=orthogonalPerimeter;strokeWidth=1;" parent="D334Im0Mvhj-NMKWilyu-5" vertex="1">
          <mxGeometry x="64" y="128" width="10" height="80" as="geometry" />
        </mxCell>
        <mxCell id="D334Im0Mvhj-NMKWilyu-15" value="2.校验信息" style="html=1;verticalAlign=bottom;endArrow=block;rounded=0;edgeStyle=orthogonalEdgeStyle;fontSize=14;exitX=1.049;exitY=0.198;exitDx=0;exitDy=0;exitPerimeter=0;" parent="D334Im0Mvhj-NMKWilyu-5" source="D334Im0Mvhj-NMKWilyu-12" edge="1">
          <mxGeometry x="0.0929" y="5" width="80" relative="1" as="geometry">
            <mxPoint x="67" y="141" as="sourcePoint" />
            <mxPoint x="75" y="195" as="targetPoint" />
            <Array as="points">
              <mxPoint x="112" y="141" />
              <mxPoint x="112" y="196" />
            </Array>
            <mxPoint as="offset" />
          </mxGeometry>
        </mxCell>
        <mxCell id="D334Im0Mvhj-NMKWilyu-19" value="[状态==失败]" style="text;html=1;align=center;verticalAlign=middle;resizable=0;points=[];autosize=1;strokeColor=none;fillColor=none;fontSize=12;" parent="D334Im0Mvhj-NMKWilyu-5" vertex="1">
          <mxGeometry x="-131" y="75" width="80" height="20" as="geometry" />
        </mxCell>
        <mxCell id="D334Im0Mvhj-NMKWilyu-18" value="loop(1,3）" style="shape=umlFrame;whiteSpace=wrap;html=1;fontSize=12;strokeWidth=1;" parent="D334Im0Mvhj-NMKWilyu-5" vertex="1">
          <mxGeometry x="-196" y="65" width="350" height="160" as="geometry" />
        </mxCell>
        <mxCell id="D334Im0Mvhj-NMKWilyu-13" value="1.登录（账号，密码）" style="html=1;verticalAlign=bottom;endArrow=block;entryX=0;entryY=0;rounded=0;exitX=1;exitY=0.128;exitDx=0;exitDy=0;exitPerimeter=0;fontSize=14;" parent="1" source="D334Im0Mvhj-NMKWilyu-7" target="D334Im0Mvhj-NMKWilyu-12" edge="1">
          <mxGeometry relative="1" as="geometry">
            <mxPoint x="220" y="213" as="sourcePoint" />
          </mxGeometry>
        </mxCell>
        <mxCell id="D334Im0Mvhj-NMKWilyu-17" value="3.登录结果（状态、类型）" style="html=1;verticalAlign=bottom;endArrow=open;dashed=1;endSize=8;rounded=0;fontSize=14;exitX=-0.26;exitY=0.95;exitDx=0;exitDy=0;exitPerimeter=0;entryX=1;entryY=0.966;entryDx=0;entryDy=0;entryPerimeter=0;" parent="1" source="D334Im0Mvhj-NMKWilyu-12" target="D334Im0Mvhj-NMKWilyu-7" edge="1">
          <mxGeometry relative="1" as="geometry">
            <mxPoint x="330" y="326" as="sourcePoint" />
            <mxPoint x="240" y="327" as="targetPoint" />
          </mxGeometry>
        </mxCell>
        <mxCell id="D334Im0Mvhj-NMKWilyu-21" value="frame" style="shape=umlFrame;whiteSpace=wrap;html=1;fontSize=12;strokeWidth=1;" parent="1" vertex="1">
          <mxGeometry x="180" y="380" width="680" height="320" as="geometry" />
        </mxCell>
        <mxCell id="D334Im0Mvhj-NMKWilyu-22" value="" style="endArrow=none;html=1;rounded=0;fontSize=12;exitX=0;exitY=0.444;exitDx=0;exitDy=0;exitPerimeter=0;entryX=1.004;entryY=0.399;entryDx=0;entryDy=0;entryPerimeter=0;" parent="1" target="D334Im0Mvhj-NMKWilyu-21" edge="1">
          <mxGeometry width="50" height="50" relative="1" as="geometry">
            <mxPoint x="180" y="505.76" as="sourcePoint" />
            <mxPoint x="810" y="503.73" as="targetPoint" />
          </mxGeometry>
        </mxCell>
        <mxCell id="D334Im0Mvhj-NMKWilyu-24" value="[类型=学生]" style="text;html=1;align=center;verticalAlign=middle;resizable=0;points=[];autosize=1;strokeColor=none;fillColor=none;fontSize=12;" parent="1" vertex="1">
          <mxGeometry x="240" y="380" width="80" height="20" as="geometry" />
        </mxCell>
        <mxCell id="D334Im0Mvhj-NMKWilyu-25" value="[类型=活动管理员]" style="text;html=1;align=center;verticalAlign=middle;resizable=0;points=[];autosize=1;strokeColor=none;fillColor=none;fontSize=12;" parent="1" vertex="1">
          <mxGeometry x="240" y="520" width="110" height="20" as="geometry" />
        </mxCell>
        <mxCell id="D334Im0Mvhj-NMKWilyu-28" value="" style="html=1;points=[];perimeter=orthogonalPerimeter;fontSize=12;strokeWidth=1;" parent="1" vertex="1">
          <mxGeometry x="210" y="425" width="10" height="40" as="geometry" />
        </mxCell>
        <mxCell id="D334Im0Mvhj-NMKWilyu-29" value="4.进入学生界面" style="html=1;verticalAlign=bottom;endArrow=block;rounded=0;fontSize=12;exitX=1;exitY=0.258;exitDx=0;exitDy=0;exitPerimeter=0;entryX=0;entryY=0.161;entryDx=0;entryDy=0;entryPerimeter=0;" parent="1" source="D334Im0Mvhj-NMKWilyu-28" target="D334Im0Mvhj-NMKWilyu-36" edge="1">
          <mxGeometry width="80" relative="1" as="geometry">
            <mxPoint x="235" y="444.58" as="sourcePoint" />
            <mxPoint x="590" y="435" as="targetPoint" />
          </mxGeometry>
        </mxCell>
        <mxCell id="D334Im0Mvhj-NMKWilyu-35" value=":学生主界面" style="shape=umlLifeline;perimeter=lifelinePerimeter;whiteSpace=wrap;html=1;container=1;collapsible=0;recursiveResize=0;outlineConnect=0;fontSize=16;strokeWidth=1;" parent="1" vertex="1">
          <mxGeometry x="556" y="125" width="90" height="605" as="geometry" />
        </mxCell>
        <mxCell id="D334Im0Mvhj-NMKWilyu-36" value="" style="html=1;points=[];perimeter=orthogonalPerimeter;fontSize=16;strokeWidth=1;" parent="D334Im0Mvhj-NMKWilyu-35" vertex="1">
          <mxGeometry x="40" y="300" width="10" height="60" as="geometry" />
        </mxCell>
        <mxCell id="D334Im0Mvhj-NMKWilyu-39" value=":活动管理界面" style="shape=umlLifeline;perimeter=lifelinePerimeter;whiteSpace=wrap;html=1;container=1;collapsible=0;recursiveResize=0;outlineConnect=0;fontSize=15;strokeWidth=1;" parent="1" vertex="1">
          <mxGeometry x="653" y="126" width="100" height="605" as="geometry" />
        </mxCell>
        <mxCell id="D334Im0Mvhj-NMKWilyu-40" value="" style="html=1;points=[];perimeter=orthogonalPerimeter;fontSize=16;strokeWidth=1;" parent="D334Im0Mvhj-NMKWilyu-39" vertex="1">
          <mxGeometry x="46" y="406" width="10" height="45" as="geometry" />
        </mxCell>
        <mxCell id="D334Im0Mvhj-NMKWilyu-41" value="" style="html=1;points=[];perimeter=orthogonalPerimeter;fontSize=12;strokeWidth=1;" parent="1" vertex="1">
          <mxGeometry x="210" y="531" width="10" height="40" as="geometry" />
        </mxCell>
        <mxCell id="D334Im0Mvhj-NMKWilyu-46" value="" style="endArrow=none;html=1;rounded=0;fontSize=12;exitX=-0.003;exitY=0.696;exitDx=0;exitDy=0;exitPerimeter=0;entryX=1.005;entryY=0.7;entryDx=0;entryDy=0;entryPerimeter=0;" parent="1" source="D334Im0Mvhj-NMKWilyu-21" target="D334Im0Mvhj-NMKWilyu-21" edge="1">
          <mxGeometry width="50" height="50" relative="1" as="geometry">
            <mxPoint x="190" y="515.76" as="sourcePoint" />
            <mxPoint x="820" y="513.73" as="targetPoint" />
          </mxGeometry>
        </mxCell>
        <mxCell id="D334Im0Mvhj-NMKWilyu-47" value="5.进入活动管理界面" style="html=1;verticalAlign=bottom;endArrow=block;rounded=0;fontSize=12;exitX=1;exitY=0.442;exitDx=0;exitDy=0;exitPerimeter=0;entryX=0;entryY=0.407;entryDx=0;entryDy=0;entryPerimeter=0;" parent="1" source="D334Im0Mvhj-NMKWilyu-41" target="D334Im0Mvhj-NMKWilyu-40" edge="1">
          <mxGeometry width="80" relative="1" as="geometry">
            <mxPoint x="230" y="445.31999999999994" as="sourcePoint" />
            <mxPoint x="610.0000000000002" y="444.6600000000001" as="targetPoint" />
          </mxGeometry>
        </mxCell>
        <mxCell id="D334Im0Mvhj-NMKWilyu-49" value="系统管理界面" style="shape=umlLifeline;perimeter=lifelinePerimeter;whiteSpace=wrap;html=1;container=1;collapsible=0;recursiveResize=0;outlineConnect=0;fontSize=16;strokeWidth=1;" parent="1" vertex="1">
          <mxGeometry x="760" y="125" width="100" height="605" as="geometry" />
        </mxCell>
        <mxCell id="D334Im0Mvhj-NMKWilyu-50" value="" style="html=1;points=[];perimeter=orthogonalPerimeter;fontSize=16;strokeWidth=1;" parent="D334Im0Mvhj-NMKWilyu-49" vertex="1">
          <mxGeometry x="45" y="507" width="10" height="45" as="geometry" />
        </mxCell>
        <mxCell id="D334Im0Mvhj-NMKWilyu-51" value="" style="html=1;points=[];perimeter=orthogonalPerimeter;fontSize=12;strokeWidth=1;" parent="1" vertex="1">
          <mxGeometry x="210" y="640" width="10" height="40" as="geometry" />
        </mxCell>
        <mxCell id="D334Im0Mvhj-NMKWilyu-52" value="[类型=系统管理员]" style="text;html=1;align=center;verticalAlign=middle;resizable=0;points=[];autosize=1;strokeColor=none;fillColor=none;fontSize=12;" parent="1" vertex="1">
          <mxGeometry x="230" y="610" width="110" height="20" as="geometry" />
        </mxCell>
        <mxCell id="D334Im0Mvhj-NMKWilyu-53" value="6.进入系统管理界面" style="html=1;verticalAlign=bottom;endArrow=block;rounded=0;fontSize=12;exitX=1.004;exitY=0.177;exitDx=0;exitDy=0;exitPerimeter=0;entryX=0.062;entryY=0.333;entryDx=0;entryDy=0;entryPerimeter=0;" parent="1" source="D334Im0Mvhj-NMKWilyu-51" target="D334Im0Mvhj-NMKWilyu-50" edge="1">
          <mxGeometry width="80" relative="1" as="geometry">
            <mxPoint x="221.20000000000005" y="649.8" as="sourcePoint" />
            <mxPoint x="786" y="645.8199999999999" as="targetPoint" />
          </mxGeometry>
        </mxCell>
      </root>
    </mxGraphModel>
  </diagram>
</mxfile>
